DBRep_DrawableShape

CASCADE Topology V1, (c) Matra-Datavision
Locations 4
1
              1               0               0               0 
              0               1               0               0 
              0               0               1               0 
1
              1               0               0               0 
              0               1               0               0 
              0               0               1               0 
2  1 1 2 -1 0
2  2 1 1 -1 0
Curve2ds 25
1 0 0 1 0 
1 0 2.1273956448051199 1 0 
2 0 0 -1 0 0 1 75
1 0 -0.48995732625372845 1 0 
1 6.2831853071795862 0 0 1 
1 0 0 0 1 
1 0 0.48995732625372829 1 0 
1 0 3.427442201989833 1 0 
1 6.2831853071795862 -6.2831853071795862 0 1 
1 0 -6.2831853071795862 0 1 
1 0 2.5899465937513404 1 0 
1 0 6.0122957519406492 1 0 
1 6.2831853071795862 8.8817841970012523e-16 0 1 
1 0 8.8817841970012523e-16 0 1 
1 0 8.9781779137986479 1 0 
1 0 2.7034571489082935 1 0 
1 6.2831853071795862 -6.2172489379008766e-15 0 1 
1 0 -6.2172489379008766e-15 0 1 
1 0 3.0628696737247596 1 0 
1 0 6.338688056509322 1 0 
1 6.2831853071795862 -4.4408920985006262e-16 0 1 
1 0 -4.4408920985006262e-16 0 1 
1 0 4.7529319492773947 1 0 
1 6.2831853071795862 -1.7763568394002505e-15 0 1 
1 0 -1.7763568394002505e-15 0 1 
Curves 13
2 0 0 0 0 1 0 1 0 0 0 0 -1 84
2 0 4.999999999999984 0 0 1 0 1 0 0 0 0 -1 75
2 78.111111111111114 0 0 0 0 1 1 0 -0 -0 1 0 5.8888888888888893
2 0 85 0 0 1 0 1 0 0 0 0 -1 75
2 0 45 0 0 0 1 1 0 -0 -0 1 0 85
2 0 90.121447585923548 0 0 1 0 1 0 0 0 0 -1 75.684667056044873
2 81.095844999999997 86.79155849441095 0 0 0 1 1 0 -0 -0 1 0 6.3536609999999998
2 0 90.711452885912848 0 0 1 0 1 0 0 0 0 -1 74.111195781423987
2 74.871947000000006 90.347153000000006 0 0 0 1 1 0 -0 -0 1 0 0.84347899999999998
2 0 86.719798999999995 0 0 1 0 1 0 0 0 0 -1 73.056040689603392
2 84.569856999999999 85.811520000000002 0 0 0 1 1 0 -0 -0 1 0 11.549586
2 0 84.951133999999996 0 0 1 0 1 0 0 0 0 -1 71.449583424042928
2 71.381611000000007 86.626767999999998 0 0 0 1 1 0 -0 -0 1 0 1.6770120907096282
Polygon3D 0
PolygonOnTriangulations 0
Surfaces 7
5 0 0 0 0 1 0 1 0 0 0 0 -1 78.111111111111114 5.8888888888888893
1 0 4.9999999999999716 0 0 1 0 -1 0 -0 0 0 -1 
4 0 45 0 0 1 0 1 -0 0 0 0 -1 85
5 0 86.79155849441095 0 0 1 0 1 0 0 0 0 -1 81.095844999999997 6.3536609999999998
5 0 90.347153000000006 0 0 1 0 1 0 0 0 0 -1 74.871947000000006 0.84347899999999998
5 0 85.811520000000002 0 0 1 0 1 0 0 0 0 -1 84.569856999999999 11.549586
5 0 86.626767999999998 0 0 1 0 1 0 0 0 0 -1 71.381611000000007 1.6770120907096282
Triangulations 0

TShapes 37
Ve
1.00005e-07
84 0 0
0 0

0101101
*
Ed
 1.00005e-07 1 1 0
1  1 0 0 6.28318530717959
2  1 1 0 0 6.28318530717959
0

0101100
+37 0 -37 0 *
Ve
1.00005e-07
75 4.99999999999998 0
0 0

0101101
*
Ed
 1.00005e-07 1 1 0
1  2 0 0 6.28318530717959
2  2 1 0 0 6.28318530717959
2  3 2 0 0 6.28318530717959
2  4 3 0 0 6.28318530717959
0

0101100
+35 0 -35 0 *
Ed
 1.00005e-07 1 1 0
1  3 0 0 2.12739564480512
3  5 6CN 1 4 0 2.12739564480512
0

0101000
+37 4 -35 4 *
Wi

0101000
+36 0 -34 0 -33 3 +33 3 *
Fa
0  1.00005e-07 1 0

0101000
+32 0 *
Wi

0101000
-34 0 *
Fa
0  1.00005e-07 2 0

0101000
+30 0 *
Sh

0101000
+31 0 -29 0 *
Ve
1.00005e-07
75 85 0
0 0

0101101
*
Ed
 1.00005e-07 1 1 0
1  4 0 0 6.28318530717959
2  7 3 0 0 6.28318530717959
2  8 4 0 0 6.28318530717959
0

0101100
+27 0 -27 0 *
Ed
 1.00005e-07 1 1 0
1  5 0 5.79322798092586 6.77314263343331
3  9 10CN 3 4 5.79322798092586 6.77314263343331
0

0101000
+35 4 -27 4 *
Wi

0101000
+34 0 -26 0 -25 3 +25 3 *
Fa
0  1.00005e-07 3 0

0101000
+24 0 *
Ve
1.00005e-07
75.6846670560449 90.1214475859235 0
0 0

0101101
*
Ed
 1.00005e-07 1 1 0
1  6 0 0 6.28318530717959
2  11 4 0 0 6.28318530717959
2  12 5 0 0 6.28318530717959
0

0101100
+22 0 -22 0 *
Ed
 1.00005e-07 1 1 0
1  7 0 2.58994659375134 3.42744220198983
3  13 14CN 4 4 2.58994659375134 3.42744220198983
0

0101000
+22 4 -27 4 *
Wi

0101000
+21 0 -26 0 -20 3 +20 3 *
Fa
0  1.00005e-07 4 0

0101000
+19 0 *
Ve
1.00005e-07
74.111195781424 90.7114528859128 0
0 0

0101101
*
Ed
 1.00005e-07 1 1 0
1  8 0 0 6.28318530717959
2  15 5 0 0 6.28318530717959
2  16 6 0 0 6.28318530717959
0

0101100
+17 0 -17 0 *
Ed
 1.00005e-07 1 1 0
1  9 0 6.01229575194066 8.97817791379865
3  17 18CN 5 4 6.01229575194066 8.97817791379865
0

0101000
+22 4 -17 4 *
Wi

0101000
+21 0 -16 0 -15 3 +15 3 *
Fa
0  1.00005e-07 5 0

0101000
+14 0 *
Ve
1.00005e-07
73.0560406896034 86.719799 0
0 0

0101101
*
Ed
 1.00005e-07 1 1 0
1  10 0 0 6.28318530717959
2  19 6 0 0 6.28318530717959
2  20 7 0 0 6.28318530717959
0

0101100
+12 0 -12 0 *
Ed
 1.00005e-07 1 1 0
1  11 0 2.70345714890829 3.06286967372476
3  21 22CN 6 4 2.70345714890829 3.06286967372476
0

0101000
+17 4 -12 4 *
Wi

0101000
+16 0 -11 0 -10 3 +10 3 *
Fa
0  1.00005e-07 6 0

0101000
+9 0 *
Ve
1.00005e-07
71.4495834240429 84.951134 0
0 0

0101101
*
Ed
 1.00005e-07 1 1 0
1  12 0 0 6.28318530717959
2  23 7 0 0 6.28318530717959
0

0101100
+7 0 -7 0 *
Ed
 1.00005e-07 1 1 0
1  13 0 4.7529319492774 6.33868805650932
3  24 25CN 7 4 4.7529319492774 6.33868805650932
0

0101000
+7 4 -12 4 *
Wi

0101000
+6 0 -11 0 -5 3 +5 3 *
Fa
0  1.00005e-07 7 0

0101000
+4 0 *
Sh

0101000
+23 0 -18 0 +13 0 +8 0 -3 0 *
So

1100000
+28 0 +2 0 *

+1 0 